<?xml version="1.0" standalone="no"?>
<!DOCTYPE svg PUBLIC "-//W3C//DTD SVG 20010904//EN"
 "http://www.w3.org/TR/2001/REC-SVG-20010904/DTD/svg10.dtd">
<svg version="1.0" xmlns="http://www.w3.org/2000/svg"
 width="512.000000pt" height="512.000000pt" viewBox="0 0 512.000000 512.000000"
 preserveAspectRatio="xMidYMid meet">

<g transform="translate(0.000000,512.000000) scale(0.100000,-0.100000)"
fill="#000000" stroke="none">
<path d="M2989 5106 c-20 -7 -49 -22 -65 -34 -58 -41 -623 -618 -633 -645 -17
-44 -13 -90 12 -140 l24 -46 -61 -60 -61 -59 -25 19 c-31 24 -86 34 -135 25
-28 -6 -59 -28 -127 -94 -87 -83 -127 -143 -128 -187 0 -70 19 -97 224 -304
127 -128 216 -210 241 -222 52 -24 106 -24 153 0 45 23 188 168 202 205 17 46
12 115 -12 157 l-22 39 59 60 58 59 30 -21 c70 -50 173 -31 247 46 l34 36 313
-312 313 -313 0 -48 c0 -26 6 -60 14 -75 8 -15 225 -237 483 -493 529 -527
499 -504 653 -504 66 0 96 5 132 22 66 30 143 105 175 172 24 48 28 69 28 141
0 152 11 138 -513 662 -251 252 -471 465 -488 473 -18 8 -52 15 -76 15 l-43 0
-313 313 -312 312 206 205 c113 113 217 225 232 250 23 38 27 57 27 115 -1
102 -43 173 -135 221 -32 17 -65 19 -355 21 -245 2 -329 0 -356 -11z m658
-182 c51 -51 50 -52 -407 -509 l-420 -420 -185 185 -185 185 282 283 c156 156
292 287 303 292 11 5 147 9 303 9 l283 1 26 -26z m-89 -1047 l302 -302 -63
-63 -62 -62 -305 305 -305 305 60 60 c33 33 62 60 65 60 3 0 141 -136 308
-303z m-1045 61 l-63 -63 -60 60 -60 59 62 63 63 63 60 -60 60 -60 -62 -62z
m-120 -370 l-62 -62 -22 20 c-12 10 -94 95 -182 187 l-160 168 59 60 59 59
185 -185 185 -185 -62 -62z m2538 -963 c32 -69 22 -134 -29 -189 -48 -51 -124
-70 -189 -46 -15 6 -227 210 -470 453 l-443 442 122 122 123 123 433 -432
c289 -288 440 -446 453 -473z"/>
<path d="M782 3149 c-101 -20 -192 -95 -241 -198 l-26 -56 -3 -1030 -2 -1030
-108 -33 c-261 -81 -402 -190 -402 -313 0 -85 80 -179 206 -242 316 -158 1080
-261 1819 -244 813 19 1437 141 1640 319 60 53 85 103 85 171 0 123 -125 221
-390 307 l-115 37 -5 1034 -5 1034 -24 53 c-29 65 -121 153 -188 178 -46 18
-99 19 -1123 21 -591 0 -1094 -3 -1118 -8z m2161 -170 c51 -14 104 -63 117
-107 8 -25 10 -374 8 -1103 l-3 -1066 -27 -35 c-55 -73 25 -68 -1163 -68 -898
0 -1070 2 -1093 14 -38 20 -77 65 -91 105 -15 46 -16 2089 0 2144 5 21 22 52
37 68 54 60 11 58 1142 59 693 0 1047 -4 1073 -11z m-2389 -2366 c29 -58 95
-122 156 -154 l45 -24 1099 -3 c1224 -3 1157 -6 1251 66 41 31 104 114 118
155 4 14 135 -26 232 -73 165 -78 166 -116 1 -190 -537 -244 -2021 -293 -2856
-95 -242 58 -430 141 -430 191 0 18 52 58 113 88 54 27 213 84 234 85 7 1 24
-20 37 -46z"/>
<path d="M920 2745 c-55 -56 -64 -70 -64 -101 0 -28 7 -42 28 -60 47 -41 79
-33 154 40 61 59 67 68 67 106 0 52 -30 80 -84 80 -32 0 -45 -9 -101 -65z"/>
<path d="M1223 2448 c-198 -200 -364 -373 -368 -385 -15 -51 54 -114 107 -98
32 10 717 692 734 732 24 55 -15 113 -75 113 -34 0 -57 -21 -398 -362z"/>
</g>
</svg>
